<svg xmlns="http://www.w3.org/2000/svg" width="640" height="480" viewBox="0 0 640 480">
  <rect width="640" height="480" fill="#EFE4CC" />
  
  <g transform="rotate(-12 320 246)">
    <ellipse cx="320" cy="432" rx="178" ry="18" fill="#241712" opacity="0.12" />
    <circle cx="320" cy="246" r="182" fill="#EAC784" />
    <circle cx="320" cy="246" r="168" fill="#D9AE5F" opacity="0.35" />
    <circle cx="320" cy="246" r="160" fill="#2B4634" opacity="0.16" />
    <circle cx="320" cy="246" r="146" fill="#E8A93E" opacity="0.28" />
    <circle cx="302.6" cy="177.8" r="13.4" fill="#C22F1D" opacity="0.9" />
    <circle cx="316.6" cy="236.4" r="13.9" fill="#C22F1D" opacity="0.9" />
    <circle cx="250.3" cy="235.9" r="9.8" fill="#C22F1D" opacity="0.9" />
    <circle cx="300.6" cy="208.5" r="9.7" fill="#2B4634" opacity="0.9" />
    <circle cx="274.9" cy="308.9" r="7.3" fill="#C22F1D" opacity="0.9" />
    <circle cx="333.8" cy="334.5" r="13.9" fill="#C22F1D" opacity="0.9" />
    <circle cx="339.5" cy="320.3" r="11.6" fill="#C22F1D" opacity="0.9" />
    <circle cx="266.9" cy="352.7" r="12.8" fill="#C22F1D" opacity="0.9" />
    <circle cx="353.8" cy="211.5" r="11.3" fill="#C22F1D" opacity="0.9" />
    <circle cx="330.1" cy="181.3" r="13.1" fill="#2B4634" opacity="0.9" />
    <circle cx="309.6" cy="165.2" r="7.4" fill="#2B4634" opacity="0.9" />
    <circle cx="379.5" cy="223.2" r="12.1" fill="#C22F1D" opacity="0.9" />
    <circle cx="318.8" cy="239.7" r="11.8" fill="#C22F1D" opacity="0.9" />
    <line x1="320" y1="246" x2="488.0" y2="246.0" stroke="#D9AE5F" stroke-width="2.5" opacity="0.55" />
    <line x1="320" y1="246" x2="438.8" y2="364.8" stroke="#D9AE5F" stroke-width="2.5" opacity="0.55" />
    <line x1="320" y1="246" x2="320.0" y2="414.0" stroke="#D9AE5F" stroke-width="2.5" opacity="0.55" />
    <line x1="320" y1="246" x2="201.2" y2="364.8" stroke="#D9AE5F" stroke-width="2.5" opacity="0.55" />
    <line x1="320" y1="246" x2="152.0" y2="246.0" stroke="#D9AE5F" stroke-width="2.5" opacity="0.55" />
    <line x1="320" y1="246" x2="201.2" y2="127.2" stroke="#D9AE5F" stroke-width="2.5" opacity="0.55" />
    <line x1="320" y1="246" x2="320.0" y2="78.0" stroke="#D9AE5F" stroke-width="2.5" opacity="0.55" />
    <line x1="320" y1="246" x2="438.8" y2="127.2" stroke="#D9AE5F" stroke-width="2.5" opacity="0.55" />
    <circle cx="320" cy="246" r="182" fill="none" stroke="#241712" stroke-opacity="0.08" stroke-width="3" />
  </g>
</svg>
